<!--?xml version="1.0" encoding="UTF-8"?-->
<svg width="256" height="256" viewBox="0 0 256 256" xmlns="http://www.w3.org/2000/svg">

  <defs>
    <linearGradient id="bgGrad" x1="0" x2="1" y1="0" y2="1">
      <stop offset="0" stop-color="#0B74D1"></stop>
      <stop offset="1" stop-color="#0577B9"></stop>
    </linearGradient>
  </defs>

  <!-- Background -->
  <rect x="0" y="0" width="256" height="256" rx="28" fill="url(#bgGrad)"></rect>

  <!-- Document icon -->
  <g transform="translate(34,32)">
    <rect x="0" y="0" width="110" height="140" rx="10" fill="#ffffff"></rect>
    <rect x="10" y="22" width="75" height="10" rx="3" fill="#e4edf7"></rect>
    <rect x="10" y="40" width="90" height="10" rx="3" fill="#e4edf7"></rect>
    <rect x="10" y="58" width="55" height="10" rx="3" fill="#e4edf7"></rect>
    <rect x="10" y="82" width="14" height="14" rx="3" fill="#e4edf7"></rect>
    <rect x="30" y="82" width="60" height="14" rx="3" fill="#e4edf7"></rect>
    <rect x="10" y="104" width="80" height="10" rx="3" fill="#e4edf7"></rect>
  </g>

  <!-- Medical cross -->
  <g transform="translate(172,108)">
    <circle cx="0" cy="0" r="42" fill="#00B074"></circle>
    <path d="M-12 -4 h8 v-8 a4 4 0 0 1 4 -4 h8 a4 4 0 0 1 4 4 v8 h8 a4 4 0 0 1 4 4 v8 a4 4 0 0 1 -4 4 h-8 v8 a4 4 0 0 1 -4 4 h-8 a4 4 0 0 1 -4 -4 v-8 h-8 a4 4 0 0 1 -4 -4 v-8 a4 4 0 0 1 4 -4 z" fill="#ffffff"></path>
  </g>

  <!-- Text closer and cleaner -->
  <g transform="translate(36,224)">
    <text x="0" y="0" font-family="Arial, Helvetica, sans-serif" font-size="32" font-weight="800" letter-spacing="0.2px" fill="#ffffff">
      Pelo
    </text>

    <text x="92" y="0" font-family="Arial, Helvetica, sans-serif" font-size="32" font-weight="800" letter-spacing="0.2px" fill="#FFD54A">
      SUS
    </text>
  </g>

</svg>
